<svg width="67" height="67" viewBox="0 0 67 67" fill="none" xmlns="http://www.w3.org/2000/svg">
<g clip-path="url(#clip0_80_2)">
<path fill-rule="evenodd" clip-rule="evenodd" d="M52.3438 25.125C52.3525 29.1627 51.0555 33.0949 48.6462 36.335L33.5 56.5313L18.3538 36.335C16.5804 33.9391 15.4007 31.1566 14.9116 28.2162C14.4225 25.2758 14.638 22.2612 15.5403 19.4203C16.4426 16.5793 18.006 13.9929 20.1021 11.8735C22.1982 9.75414 24.7672 8.16227 27.598 7.22865C30.4288 6.29503 33.4408 6.04631 36.3864 6.5029C39.3321 6.9595 42.1274 8.10839 44.5428 9.8552C46.9581 11.602 48.9246 13.8969 50.2807 16.5514C51.6368 19.2059 52.3439 22.1442 52.3438 25.125ZM58.625 25.125C58.625 30.7363 56.7867 35.912 53.6838 40.0912L37.4237 61.7657L33.5 67L29.5721 61.7657L13.3163 40.0912C10.949 36.8979 9.3732 33.1885 8.71832 29.2678C8.06344 25.347 8.34817 21.3269 9.54913 17.5376C10.7501 13.7483 12.833 10.2981 15.6267 7.47033C18.4204 4.64258 21.8452 2.51805 25.6196 1.27129C29.3941 0.0245374 33.4105 -0.308863 37.3389 0.298486C41.2672 0.905836 44.9954 2.4366 48.2172 4.76501C51.4389 7.09342 54.0622 10.153 55.8715 13.6924C57.6808 17.2318 58.6245 21.15 58.625 25.125ZM33.5 33.5C35.7212 33.5 37.8514 32.6177 39.422 31.0471C40.9926 29.4764 41.875 27.3462 41.875 25.125C41.875 22.9039 40.9926 20.7736 39.422 19.203C37.8514 17.6324 35.7212 16.75 33.5 16.75C31.2788 16.75 29.1486 17.6324 27.578 19.203C26.0074 20.7736 25.125 22.9039 25.125 25.125C25.125 27.3462 26.0074 29.4764 27.578 31.0471C29.1486 32.6177 31.2788 33.5 33.5 33.5Z" fill="white"/>
</g>
<defs>
<clipPath id="clip0_80_2">
<rect width="67" height="67" fill="white"/>
</clipPath>
</defs>
</svg>
