<svg width="103" height="21" viewBox="0 0 103 21" fill="none" xmlns="http://www.w3.org/2000/svg">
<path d="M5.26931 19.1744L6.65512 13.1834L2.00732 9.15392L8.14754 8.62092L10.5354 2.97107L12.9233 8.62092L19.0635 9.15392L14.4157 13.1834L15.8015 19.1744L10.5354 15.9977L5.26931 19.1744Z" fill="#FFBA00"/>
<path d="M25.7366 19.1743L27.1224 13.1833L22.4746 9.1538L28.6148 8.6208L31.0027 2.97095L33.3905 8.6208L39.5308 9.1538L34.883 13.1833L36.2688 19.1743L31.0027 15.9976L25.7366 19.1743Z" fill="#FFBA00"/>
<path d="M46.2039 19.1743L47.5897 13.1833L42.9419 9.1538L49.0821 8.6208L51.47 2.97095L53.8578 8.6208L59.998 9.1538L55.3502 13.1833L56.7361 19.1743L51.47 15.9976L46.2039 19.1743Z" fill="#FFBA00"/>
<path d="M66.6712 19.1743L68.057 13.1833L63.4092 9.1538L69.5494 8.6208L71.9373 2.97095L74.3251 8.6208L80.4653 9.1538L75.8175 13.1833L77.2033 19.1743L71.9373 15.9976L66.6712 19.1743Z" fill="#FFBA00"/>
<path d="M87.1389 19.1743L88.5248 13.1833L83.877 9.1538L90.0172 8.6208L92.405 2.97095L94.7929 8.6208L100.933 9.1538L96.2853 13.1833L97.6711 19.1743L92.405 15.9976L87.1389 19.1743Z" fill="#FFBA00"/>
</svg>
