<svg width="45" height="55" viewBox="0 0 45 55" fill="none" xmlns="http://www.w3.org/2000/svg">
<path d="M41.0907 23.7669L19.6257 51.5419C18.9086 52.4695 17.9518 53.0666 16.9165 53.2325C15.8813 53.3985 14.8308 53.1232 13.9423 52.453C13.0537 51.7828 12.3814 50.7587 12.0385 49.5534C11.6956 48.348 11.7032 47.035 12.06 45.8356L15.4688 34.375H7.52911C6.75828 34.375 5.9992 34.1441 5.31829 33.7025C4.63739 33.2609 4.05541 32.6221 3.62329 31.8419C3.19118 31.0617 2.9221 30.164 2.83959 29.2273C2.75709 28.2906 2.86369 27.3434 3.15005 26.4687L9.68348 6.50719C10.1473 5.09501 10.9459 3.88455 11.9768 3.03129C13.0077 2.17804 14.2238 1.72095 15.4688 1.71875H26.7188C29.4413 1.71875 31.3229 5.04281 30.3694 8.15719L28.125 15.4687H38.1629C38.9492 15.4687 39.7184 15.7502 40.3753 16.2786C41.0322 16.8069 41.5481 17.5588 41.8593 18.4415C42.1704 19.3242 42.2632 20.299 42.1261 21.2454C41.989 22.1918 41.6309 23.0684 41.0907 23.7669Z" fill="#FFD233"/>
</svg>
