<svg width="50" height="50" viewBox="0 0 50 50" fill="none" xmlns="http://www.w3.org/2000/svg">
<rect width="50" height="50" fill="#1E1E1E"/>
<path d="M25.9375 3.15625C28.2813 3.125 30.625 3.15625 32.9688 3.125C33.125 5.90625 34.0938 8.75 36.125 10.7188C38.125 12.75 40.9688 13.6562 43.75 13.9687V21.3125C41.1563 21.2188 38.5625 20.6875 36.1875 19.5625C35.1563 19.0938 34.2187 18.5 33.2812 17.875C33.2812 23.1875 33.2813 28.5312 33.25 33.8125C33.125 36.375 32.2812 38.9062 30.8125 41C28.4687 44.5 24.375 46.7812 20.1875 46.8437C17.625 47 15.0313 46.2813 12.8438 44.9688C9.21875 42.8125 6.65625 38.8125 6.28125 34.5625C6.21875 33.6563 6.21875 32.75 6.28125 31.8437C6.59375 28.375 8.3125 25.0625 10.9375 22.8125C13.9062 20.1875 18.0938 18.9375 22 19.6875C22.0313 22.375 21.9375 25.0938 21.9375 27.7813C20.1563 27.1875 18.0625 27.375 16.5 28.4687C15.3438 29.2187 14.5 30.3438 14.0312 31.6563C13.6562 32.5938 13.75 33.5937 13.7812 34.5937C14.2187 37.5937 17.0625 40.0937 20.0625 39.8125C22.0625 39.8125 24 38.5938 25.0313 36.875C25.375 36.2813 25.75 35.6563 25.7813 34.9375C25.9688 31.6875 25.875 28.4375 25.9063 25.1563C25.9063 17.8125 25.9063 10.4687 25.9375 3.15625Z" fill="#F8F8F8"/>
</svg>
