<svg width="309" height="405" viewBox="0 0 309 405" fill="none" xmlns="http://www.w3.org/2000/svg">
<path d="M300.001 173.246L131.794 390.901C126.175 398.17 118.677 402.849 110.564 404.15C102.451 405.45 94.2199 403.293 87.2568 398.041C80.2937 392.789 75.0248 384.764 72.338 375.318C69.6513 365.872 69.7109 355.583 72.5069 346.185L99.2191 256.375H37.0009C30.9604 256.375 25.0119 254.566 19.6761 251.105C14.3403 247.645 9.77968 242.638 6.39347 236.525C3.00726 230.411 0.898633 223.376 0.252116 216.036C-0.394401 208.695 0.440901 201.273 2.68492 194.419L53.8833 37.9927C57.5178 26.9263 63.7763 17.4407 71.8547 10.7543C79.9331 4.06789 89.4626 0.486005 99.2191 0.46875H187.378C208.713 0.46875 223.457 26.5173 215.986 50.9227L198.398 108.219H277.058C283.22 108.218 289.248 110.425 294.396 114.565C299.544 118.705 303.586 124.597 306.025 131.514C308.463 138.432 309.19 146.07 308.115 153.487C307.041 160.903 304.235 167.772 300.001 173.246Z" fill="#FFF5CC"/>
</svg>
